<svg id="visual" viewBox="0 0 960 200" width="960" height="200" xmlns="http://www.w3.org/2000/svg" xmlns:xlink="http://www.w3.org/1999/xlink" version="1.1"><path d="M0 126L22.8 131.3C45.7 136.7 91.3 147.3 137 147.5C182.7 147.7 228.3 137.3 274 139.5C319.7 141.7 365.3 156.3 411.2 160.5C457 164.7 503 158.3 548.8 153.5C594.7 148.7 640.3 145.3 686 143.7C731.7 142 777.3 142 823 142.8C868.7 143.7 914.3 145.3 937.2 146.2L960 147L960 201L937.2 201C914.3 201 868.7 201 823 201C777.3 201 731.7 201 686 201C640.3 201 594.7 201 548.8 201C503 201 457 201 411.2 201C365.3 201 319.7 201 274 201C228.3 201 182.7 201 137 201C91.3 201 45.7 201 22.8 201L0 201Z" fill="#0b4f4a" stroke-linecap="round" stroke-linejoin="miter"></path></svg>