<svg id="visual" viewBox="0 0 960 150" width="960" height="150" xmlns="http://www.w3.org/2000/svg" xmlns:xlink="http://www.w3.org/1999/xlink" version="1.1"><path d="M0 47L22.8 48.2C45.7 49.3 91.3 51.7 137 58.8C182.7 66 228.3 78 274 85.3C319.7 92.7 365.3 95.3 411.2 87.5C457 79.7 503 61.3 548.8 61.3C594.7 61.3 640.3 79.7 686 89.2C731.7 98.7 777.3 99.3 823 97.7C868.7 96 914.3 92 937.2 90L960 88L960 151L937.2 151C914.3 151 868.7 151 823 151C777.3 151 731.7 151 686 151C640.3 151 594.7 151 548.8 151C503 151 457 151 411.2 151C365.3 151 319.7 151 274 151C228.3 151 182.7 151 137 151C91.3 151 45.7 151 22.8 151L0 151Z" fill="#00796B" stroke-linecap="round" stroke-linejoin="miter"></path></svg>