<svg id="visual" viewBox="0 0 960 200" width="960" height="200" xmlns="http://www.w3.org/2000/svg" xmlns:xlink="http://www.w3.org/1999/xlink" version="1.1"><path d="M0 107L22.8 111.3C45.7 115.7 91.3 124.3 137 131.7C182.7 139 228.3 145 274 139.5C319.7 134 365.3 117 411.2 118C457 119 503 138 548.8 137C594.7 136 640.3 115 686 108.2C731.7 101.3 777.3 108.7 823 110.8C868.7 113 914.3 110 937.2 108.5L960 107L960 201L937.2 201C914.3 201 868.7 201 823 201C777.3 201 731.7 201 686 201C640.3 201 594.7 201 548.8 201C503 201 457 201 411.2 201C365.3 201 319.7 201 274 201C228.3 201 182.7 201 137 201C91.3 201 45.7 201 22.8 201L0 201Z" fill="#0b4f4a" stroke-linecap="round" stroke-linejoin="miter"></path></svg>