<svg id="visual" viewBox="0 0 960 200" width="960" height="200" xmlns="http://www.w3.org/2000/svg" xmlns:xlink="http://www.w3.org/1999/xlink" version="1.1"><path d="M0 91L22.8 86.7C45.7 82.3 91.3 73.7 137 66.3C182.7 59 228.3 53 274 58.5C319.7 64 365.3 81 411.2 80C457 79 503 60 548.8 61C594.7 62 640.3 83 686 89.8C731.7 96.7 777.3 89.3 823 87.2C868.7 85 914.3 88 937.2 89.5L960 91L960 0L937.2 0C914.3 0 868.7 0 823 0C777.3 0 731.7 0 686 0C640.3 0 594.7 0 548.8 0C503 0 457 0 411.2 0C365.3 0 319.7 0 274 0C228.3 0 182.7 0 137 0C91.3 0 45.7 0 22.8 0L0 0Z" fill="#0b4f4a" stroke-linecap="round" stroke-linejoin="miter"></path></svg>