<svg id="visual" viewBox="0 0 960 540" width="960" height="540" xmlns="http://www.w3.org/2000/svg" xmlns:xlink="http://www.w3.org/1999/xlink" version="1.1"><path d="M0 441L32 429.7C64 418.3 128 395.7 192 393.8C256 392 320 411 384 414.5C448 418 512 406 576 401.8C640 397.7 704 401.3 768 395C832 388.7 896 372.3 928 364.2L960 356L960 541L928 541C896 541 832 541 768 541C704 541 640 541 576 541C512 541 448 541 384 541C320 541 256 541 192 541C128 541 64 541 32 541L0 541Z" fill="#2F7D71" stroke-linecap="round" stroke-linejoin="miter"></path></svg>