<svg id="visual" viewBox="0 0 960 200" width="960" height="200" xmlns="http://www.w3.org/2000/svg" xmlns:xlink="http://www.w3.org/1999/xlink" version="1.1"><path d="M0 158L22.8 155.2C45.7 152.3 91.3 146.7 137 144.3C182.7 142 228.3 143 274 144.3C319.7 145.7 365.3 147.3 411.2 139.8C457 132.3 503 115.7 548.8 113.5C594.7 111.3 640.3 123.7 686 134.2C731.7 144.7 777.3 153.3 823 154.3C868.7 155.3 914.3 148.7 937.2 145.3L960 142L960 201L937.2 201C914.3 201 868.7 201 823 201C777.3 201 731.7 201 686 201C640.3 201 594.7 201 548.8 201C503 201 457 201 411.2 201C365.3 201 319.7 201 274 201C228.3 201 182.7 201 137 201C91.3 201 45.7 201 22.8 201L0 201Z" fill="#0b4f4a" stroke-linecap="round" stroke-linejoin="miter"></path></svg>