<svg id="visual" viewBox="0 0 960 150" width="960" height="150" xmlns="http://www.w3.org/2000/svg" xmlns:xlink="http://www.w3.org/1999/xlink" version="1.1"><path d="M0 74L22.8 71.8C45.7 69.7 91.3 65.3 137 61.5C182.7 57.7 228.3 54.3 274 57.2C319.7 60 365.3 69 411.2 79.3C457 89.7 503 101.3 548.8 101C594.7 100.7 640.3 88.3 686 85.2C731.7 82 777.3 88 823 91.7C868.7 95.3 914.3 96.7 937.2 97.3L960 98L960 151L937.2 151C914.3 151 868.7 151 823 151C777.3 151 731.7 151 686 151C640.3 151 594.7 151 548.8 151C503 151 457 151 411.2 151C365.3 151 319.7 151 274 151C228.3 151 182.7 151 137 151C91.3 151 45.7 151 22.8 151L0 151Z" fill="#00796B" stroke-linecap="round" stroke-linejoin="miter"></path></svg>